<?xml version="1.0" encoding="utf-8"?><!-- Generator: Adobe Illustrator 18.1.1, SVG Export Plug-In . SVG Version: 6.00 Build 0)  --><svg xmlns="http://www.w3.org/2000/svg" xmlns:xlink="http://www.w3.org/1999/xlink" viewBox="0 0 50 50" width="50px" height="50px"><g><path fill="none" stroke="#000000" stroke-width="2" stroke-miterlimit="10" d="M25,14C13.4,14,4,20.7,4,29c0,8.3,9.4,15,21,15s21-6.7,21-15C46,20.7,36.6,14,25,14L25,14z"/></g><circle fill="none" stroke="#000000" stroke-width="2" stroke-miterlimit="10" cx="33" cy="26" r="3"/><circle fill="none" stroke="#000000" stroke-width="2" stroke-miterlimit="10" cx="17" cy="26" r="3"/><path fill="none" stroke="#000000" stroke-width="2" stroke-linecap="round" stroke-miterlimit="10" d="M15.9,35c0,0,2.6,3.7,9.1,3.7s9.1-3.7,9.1-3.7"/><path fill="none" stroke="#000000" stroke-width="2" stroke-miterlimit="10" d="M25,14c0-6,1.2-10,4-10s2.6,4,8,4"/><path fill="none" stroke="#000000" stroke-width="2" stroke-miterlimit="10" d="M39.3,17.3c1.8-1.8,4.6-1.8,6.4,0s1.8,4.6,0,6.4l-0.4,0.4"/><path fill="none" stroke="#000000" stroke-width="2" stroke-miterlimit="10" d="M10.7,17.3c-1.8-1.8-4.6-1.8-6.4,0s-1.8,4.6,0,6.4l0.4,0.4"/><circle fill="none" stroke="#000000" stroke-width="2" stroke-miterlimit="10" cx="41" cy="8" r="4"/></svg>